
<svg width="60" height="60" viewBox="0 0 60 60" xmlns="http://www.w3.org/2000/svg">
  <path d="M54.627 0l.83.828-1.415 1.415L51.8 0h2.827zM5.373 0l-.83.828L5.96 2.243 8.2 0H5.374zM48.97 0l3.657 3.657-1.414 1.414L46.143 0h2.828zM11.03 0L7.372 3.657l1.415 1.414L13.857 0H11.03zm32.284 0l6.364 6.364-1.414 1.414L41.2 0h2.12zM16.686 0L10.322 6.364l1.414 1.414L19.8 0h-3.114zM30 0l9.9 9.9-1.414 1.414L30 2.828 21.515 11.313 20.1 9.9 30 0zm13.656 0l12.728 12.728-1.414 1.414L43.97 3.142 42.556 4.556 55.284 17.284l-1.414 1.414L40.97 5.8l-1.414 1.414 13.557 13.556-1.414 1.414L39.142 8.628l-1.414 1.414L51.07 23.384l-1.414 1.414-15.556-15.556L32.686 10.657l18.385 18.385-1.414 1.414L30 10.8 13.543 27.257l-1.414-1.414L30 7.8l1.414 1.413L16.342 24.284l1.414 1.414 16.485-16.485 1.414 1.414L19.97 25.313l1.414 1.414 16.486-16.486 1.414 1.415L23.728 27.212l1.414 1.414L40.97 12.8l1.415 1.414-15.556 15.556 1.414 1.414 17.384-17.385 1.414 1.414-18.384 18.385 1.414 1.414L48.9 15.385l1.414 1.414-21.213 21.213 1.414 1.414 21.213-21.213 1.414 1.414-21.213 21.213 1.414 1.414L54.627 19.97l1.414 1.415-21.212 21.213 1.414 1.414 21.212-21.213 1.415 1.414-21.213 21.213 1.414 1.414L59.9 24.9l1.415 1.414-24.85 24.85 1.414 1.414L60 30l1.414 1.414-30 30L30 60l-1.414-1.414-30-30L0 27.172l30-30L31.414 0 30 1.414 1.414 30l-1.413-1.414 30-30L31.415 0z" fill="#9C92AC" fill-opacity="0.03" fill-rule="evenodd"/>
</svg>
